<?xml version="1.0"?>
<svg width="122.88" height="122.88" xmlns="http://www.w3.org/2000/svg" xmlns:svg="http://www.w3.org/2000/svg" data-name="Layer 1">
 <defs>
  <style>.cls-1{fill:rgba(0,0,0,0.6)},.cls-2{fill-rule:evenodd;}.cls-2{fill:#fff;}</style>
 </defs>
 <title>like-button-black</title>
 <g class="layer">
  <title>Layer 1</title>
  <path class="cls-1" d="m61.44,0a61.44,61.44 0 1 1 -61.44,61.44a61.44,61.44 0 0 1 61.44,-61.44z" id="svg_1"/>
  <path class="cls-2" d="m93.09,63.39l-10.82,0a-2.23,2.18 0 0 1 -2.22,2.18l0,28.95a-2.24,2.19 0 0 1 2.22,2.18l10.82,0a-2.24,2.19 0 0 1 2.23,-2.18l0,-28.95a-2.24,2.19 0 0 1 -2.23,-2.18zm-28.38,-21.71c-1.17,-5.82 -10.92,-0.46 -11.57,8.91a-41.4,40.41 0 0 1 0.83,9.93l-13.94,0c-5.79,0.23 -10.85,4.28 -7.27,10.93c-0.82,2.9 -0.94,6.3 1.27,7.65c-0.28,4.57 1.02,7.41 3.45,9.65a-11.7,11.42 0 0 1 1.82,5.88c1.88,2.58 3.39,2 6.34,2l23.57,0c3.73,0 5.76,-1 8.2,-4l0,-25.63c-7.08,-1.83 -10.81,-11.2 -12.69,-17.35l0,-8l0,0.03z" id="svg_2" transform="rotate(180 63.4371 67.9811)"/>
 </g>
</svg>